<svg width="8" height="7" viewBox="0 0 8 7" fill="none" xmlns="http://www.w3.org/2000/svg">
<path fill-rule="evenodd" clip-rule="evenodd" d="M1.13942 2.0897C1.1488 1.99752 1.11348 1.90658 1.04473 1.8447L0.344733 1.00095V0.875015H2.51911L4.19973 4.56095L5.67723 0.875015H7.75005V1.00095L7.1513 1.57502C7.09973 1.61439 7.07411 1.67908 7.08473 1.74314V5.96127C7.07411 6.02501 7.09973 6.0897 7.1513 6.12908L7.73598 6.70314V6.82908H4.79473V6.70314L5.40067 6.11502C5.46005 6.05564 5.46005 6.03814 5.46005 5.9472V2.53783L3.77598 6.81533H3.54848L1.58755 2.53783V5.4047C1.5713 5.52502 1.6113 5.64658 1.69598 5.73345L2.4838 6.68908V6.81533H0.250046V6.68908L1.03786 5.73345C1.12223 5.64627 1.15973 5.52408 1.13942 5.4047V2.0897Z" fill="white"/>
</svg>
